<svg width="22" height="22" viewBox="0 0 22 22" fill="none" xmlns="http://www.w3.org/2000/svg">
<path d="M3.50199 12.3886C3.48697 12.4035 3.37215 12.8616 3.24693 13.4065C3.1217 13.9514 3.03838 14.4031 3.06163 14.4104C3.08496 14.4176 3.46316 14.474 3.90212 14.5356C4.7836 14.6594 5.8128 14.9593 6.45647 15.2797C8.46249 16.2784 9.79076 18.0703 10.136 20.2436L10.2239 20.797L11.1101 20.797L11.9963 20.797L12.0805 20.2954C12.6318 17.0091 15.089 14.8666 18.7662 14.4658C19.0063 14.4396 19.2027 14.4084 19.2027 14.3963C19.2027 14.2855 18.7602 12.449 18.7251 12.4143C18.6997 12.3892 18.4746 12.4078 18.2249 12.4558C15.4601 12.9873 13.2103 14.5089 12.2695 16.4835L12.0439 16.9571L12.0262 7.21702L12.015 1.05798L10.2215 1.05798L10.2103 7.23286L10.1926 16.95L9.88958 16.352C9.10365 14.8007 7.56194 13.5725 5.49257 12.8492C4.90303 12.6431 3.55898 12.3321 3.50199 12.3886Z" fill="#A3A3A3"/>
</svg>
